<?xml version="1.0" encoding="utf-8"?>
<!-- Generator: Adobe Illustrator 27.0.0, SVG Export Plug-In . SVG Version: 6.00 Build 0)  -->
<svg version="1.1" id="Layer_1" xmlns="http://www.w3.org/2000/svg" xmlns:xlink="http://www.w3.org/1999/xlink" x="0px" y="0px"
	 viewBox="0 0 1080 1080" style="enable-background:new 0 0 1080 1080;" xml:space="preserve">
<style type="text/css">
	.st0{fill:#23B685;}
</style>
<g>
	<g>
		<g>
			<path class="st0" d="M312.44,744.43v33.1c0,4.99-2.66,9.18-7.97,12.57c-5.32,3.38-14.03,5.07-26.16,5.07s-22.23-3.9-30.32-11.69
				c-8.09-7.79-12.14-17.99-12.14-30.6c0-12.6,4.03-22.82,12.08-30.66c8.05-7.83,17.73-11.75,29.03-11.75
				c11.3,0,19.89,1.77,25.79,5.32c5.9,3.54,8.89,6.87,8.97,9.97c0.08,3.1-0.94,5.87-3.05,8.31c-2.12,2.44-4.19,3.66-6.22,3.66
				s-4.97-0.98-8.82-2.93c-3.85-1.95-9.01-2.97-15.49-3.05c-6.48-0.08-11.29,1.9-14.41,5.95c-3.12,4.05-4.68,9.12-4.68,15.22
				c0,6.1,1.73,11.12,5.2,15.07c3.46,3.95,8.05,5.88,13.77,5.8c5.72-0.08,9.3-0.92,10.75-2.53v-6.52h-3.74
				c-7.25,0-10.87-3.38-10.87-10.15v-10.15H312.44z"/>
			<path class="st0" d="M368.62,759.77l10.87,14.86c2.94,3.5,4.35,6.68,4.23,9.52c-0.12,2.84-1.56,5.39-4.32,7.64
				c-2.76,2.26-5.67,3.33-8.73,3.23c-3.06-0.1-6.18-1.98-9.36-5.65l-18.91-25.85v20.42c0,7.01-3.99,10.51-11.96,10.51h-11.96v-81.55
				h11.96h27.06c6.68,0,12.24,2.57,16.67,7.7c4.43,5.13,6.65,10.64,6.65,16.52C380.83,747.63,376.76,755.18,368.62,759.77z
				 M342.4,729.32v18.61h6.89c6.77,0,10.15-3.1,10.15-9.3s-3.38-9.3-10.15-9.3H342.4z"/>
			<path class="st0" d="M473.85,752.88c0,12.61-4.09,22.81-12.26,30.6c-8.18,7.79-18.53,11.69-31.05,11.69s-22.83-3.9-30.93-11.69
				c-8.09-7.79-12.14-17.99-12.14-30.6c0-12.6,4.03-22.82,12.08-30.66c8.05-7.83,18.43-11.75,31.14-11.75s23.08,3.92,31.11,11.75
				C469.84,730.06,473.85,740.28,473.85,752.88z M445.22,737.72c-3.62-3.99-8.46-5.98-14.5-5.98c-6.04,0-10.9,2.01-14.56,6.01
				c-3.67,4.01-5.5,9.06-5.5,15.16c0,6.1,1.83,11.12,5.5,15.07c3.66,3.95,8.51,5.92,14.53,5.92s10.85-1.99,14.5-5.98
				c3.64-3.99,5.47-9.02,5.47-15.1C450.65,746.74,448.84,741.71,445.22,737.72z"/>
			<path class="st0" d="M538.43,794.69l-3.99-8.58l-7.25-15.82l-7.25,15.82c-2.62,5.72-6.38,8.58-11.3,8.58h-8.64l-20.54-63.07
				c-0.93-2.86-1.39-5.54-1.39-8.03s0.96-4.97,2.87-7.4c1.91-2.44,5.32-3.63,10.21-3.6c4.89,0.04,8.25,2.84,10.06,8.4l9.06,28.03
				l5.68-12.32c2.62-5.64,6.4-8.45,11.36-8.45c4.95,0,8.7,2.82,11.24,8.45l5.56,12.32l9.18-28.03c1.81-5.56,5.14-8.36,10-8.4
				c4.85-0.04,8.25,1.17,10.21,3.63c1.95,2.46,2.93,4.93,2.93,7.43c0,2.5-0.46,5.16-1.39,7.97l-17.76,54.49
				c-2.82,5.72-6.71,8.58-11.66,8.58H538.43z"/>
		</g>
	</g>
	<g>
		<path class="st0" d="M262.49,687.52h564.59c12.69,0,22.98-10.29,22.98-22.98V314.58c0-18.01-19.78-29.03-35.09-19.54L250.38,645
			C230.72,657.19,239.35,687.52,262.49,687.52z M813.1,651.73H308.52L813.1,339.59V651.73z"/>
	</g>
	<circle class="st0" cx="652.7" cy="514.5" r="18.84"/>
	<circle class="st0" cx="741.62" cy="514.5" r="18.84"/>
	<path class="st0" d="M695.81,612.11c-24.78,0-48.08-9.65-65.6-27.17l16.19-16.19c13.2,13.2,30.74,20.46,49.4,20.46
		c18.66,0,36.21-7.27,49.4-20.46l16.19,16.19C743.89,602.46,720.59,612.11,695.81,612.11z"/>
</g>
</svg>
