<?xml version="1.0" encoding="UTF-8"?>
<svg version="1.1" xmlns="http://www.w3.org/2000/svg" width="612" height="408">
<path d="M0 0 C3.06219375 2.76344314 4.26225451 5.02275292 5 9 C5.0942326 11.26092217 5.13060777 13.52445531 5.13371277 15.78733826 C5.13597833 16.46918137 5.13824388 17.15102449 5.14057809 17.85352951 C5.14690612 20.13731491 5.1460895 22.42104079 5.14526367 24.70483398 C5.14825588 26.34261146 5.15165855 27.98038822 5.15544128 29.61816406 C5.16427847 34.06647193 5.16661926 38.51476056 5.16725707 42.96307635 C5.16820652 46.67588824 5.17188517 50.38869565 5.17542917 54.10150582 C5.1835724 62.86007194 5.18601349 71.61862779 5.18530273 80.37719727 C5.18470173 89.41467851 5.19525838 98.45210012 5.2110464 107.48956627 C5.22411681 115.24762549 5.22948685 123.0056652 5.22884732 130.76373535 C5.22859222 135.39780878 5.23145028 140.03182918 5.24202538 144.66589165 C5.25169814 149.02349251 5.25179119 153.38098956 5.24450874 157.73859406 C5.24346193 159.33776819 5.24583152 160.93694876 5.2518692 162.53611183 C5.25957843 164.71942302 5.25495162 166.90237474 5.24723816 169.0856781 C5.24778293 170.30738929 5.24832769 171.52910048 5.24888897 172.78783321 C4.9102012 177.15894542 3.91797303 179.93396681 1.0625 183.25 C-2.03197866 185.87561826 -4.59618225 186.12536255 -8.50660419 186.13142776 C-9.89988846 186.13718948 -9.89988846 186.13718948 -11.32131988 186.1430676 C-12.34348088 186.14220112 -13.36564189 186.14133463 -14.41877747 186.14044189 C-15.50333227 186.14341302 -16.58788708 186.14638414 -17.70530719 186.1494453 C-21.35798919 186.15815219 -25.0106385 186.15964222 -28.66333008 186.16113281 C-31.27469452 186.16575955 -33.88605829 186.17078401 -36.49742126 186.17617798 C-43.60485611 186.18976375 -50.71228532 186.19578637 -57.819731 186.20018864 C-62.25696002 186.20295059 -66.69418686 186.20718785 -71.13141441 186.21169281 C-83.41487523 186.22388569 -95.6983343 186.23418504 -107.98180103 186.2375679 C-108.76807089 186.23778747 -109.55434075 186.23800703 -110.36443697 186.23823325 C-111.15259607 186.23845153 -111.94075518 186.23866981 -112.7527979 186.2388947 C-114.34992842 186.23933817 -115.94705894 186.23978473 -117.54418945 186.24023438 C-118.7325392 186.24056652 -118.7325392 186.24056652 -119.94489601 186.24090537 C-132.78319965 186.24485377 -145.62144655 186.26230895 -158.45972828 186.2855939 C-171.63805911 186.30930284 -184.81636146 186.32176954 -197.99471396 186.32293582 C-205.3949074 186.32385283 -212.79502689 186.3296116 -220.19519997 186.34775543 C-227.15465932 186.36475849 -234.11397607 186.36641246 -241.07345009 186.35761642 C-243.63006465 186.35684377 -246.18668664 186.36121871 -248.74328232 186.37107468 C-252.22911435 186.38372653 -255.71444351 186.3779538 -259.20027161 186.36749268 C-260.21574045 186.37554908 -261.23120928 186.38360548 -262.27744991 186.39190602 C-267.61312623 186.35436781 -271.39381155 186.01015025 -276 183 C-278.78169 180.15937589 -279.45084604 178.06960564 -279.5 174.125 C-279.5309375 173.30257812 -279.561875 172.48015625 -279.59375 171.6328125 C-278.17205908 165.32873565 -273.44668563 162.47980241 -268.28125 159.1953125 C-266.02663139 157.82719299 -263.7676832 156.47087639 -261.5 155.125 C-260.39140625 154.45597656 -259.2828125 153.78695312 -258.140625 153.09765625 C-255.89960209 151.74522498 -253.65642964 150.39634922 -251.41113281 149.05102539 C-247.91425934 146.94844637 -244.42974958 144.82722993 -240.953125 142.69140625 C-239.92348633 142.05920166 -238.89384766 141.42699707 -237.83300781 140.77563477 C-235.26931269 139.16879621 -232.7514524 137.51411585 -230.25 135.8125 C-227.55963168 133.99311423 -224.86385658 132.34280504 -222 130.8125 C-217.33415977 128.29064622 -212.93461048 125.40172366 -208.5 122.5 C-199.59936805 116.67778928 -199.59936805 116.67778928 -195.5 114.5 C-187.25669387 110.09300172 -179.54984035 104.64425908 -171.74316406 99.51806641 C-164.10625436 94.50519754 -156.5350316 89.58559874 -148.43359375 85.34375 C-145.12192811 83.51515774 -142.0519382 81.39212796 -138.97265625 79.19921875 C-136.96759542 77.98030058 -135.29282956 77.43599667 -133 77 C-133 76.34 -133 75.68 -133 75 C-131.23483259 73.84114221 -129.40933043 72.77371125 -127.5625 71.75 C-122.97359749 69.15159447 -118.56807507 66.42989946 -114.2109375 63.46484375 C-111.03397432 61.35996532 -107.75143596 59.44482222 -104.47265625 57.50390625 C-102.07674194 56.04667559 -99.75613143 54.51416937 -97.4375 52.9375 C-94.52542531 50.96711555 -91.59047357 49.1764614 -88.5 47.5 C-84.7499973 45.46097623 -81.2423775 43.20000016 -77.71484375 40.80078125 C-73.49381452 38.00093309 -69.17948978 35.35253625 -64.87597656 32.68188477 C-61.26543954 30.4352812 -57.69703115 28.15292223 -54.1875 25.75 C-51.03660673 23.60931678 -47.8032243 21.7840178 -44.4375 20 C-40.32282329 17.80854944 -36.75254627 15.37828587 -33.09765625 12.50390625 C-29.79658054 10.13721323 -26.20900694 8.34411947 -22.62109375 6.453125 C-20.27870004 5.1545103 -18.154335 3.77250757 -16 2.1875 C-10.76203612 -1.63184866 -6.14595985 -1.48107557 0 0 Z M-23.375 29.375 C-31.57395288 34.40117801 -31.57395288 34.40117801 -35 36 C-35 36.66 -35 37.32 -35 38 C-35.825 38.20625 -36.65 38.4125 -37.5 38.625 C-41.25158603 40.09883737 -43.74078171 41.97332436 -46.8828125 44.43359375 C-49.6078171 46.44969494 -52.48314589 47.99684762 -55.46484375 49.59765625 C-60.16693633 52.19865969 -64.69899539 55.08547928 -69.26220703 57.92089844 C-72.23349225 59.76595052 -75.21030359 61.60200748 -78.1875 63.4375 C-79.25355469 64.09621094 -80.31960938 64.75492188 -81.41796875 65.43359375 C-84 67 -84 67 -86 68 C-86 68.66 -86 69.32 -86 70 C-86.85207031 70.24363281 -87.70414063 70.48726562 -88.58203125 70.73828125 C-92.30890118 72.11402866 -95.41139218 73.99118041 -98.6875 76.1875 C-99.92691587 77.00155711 -101.16650109 77.81535643 -102.40625 78.62890625 C-103.0146875 79.03125488 -103.623125 79.43360352 -104.25 79.84814453 C-106.71156815 81.46835638 -109.19823967 83.04775315 -111.6875 84.625 C-112.56535156 85.18316406 -113.44320312 85.74132812 -114.34765625 86.31640625 C-116.16715015 87.47134273 -117.98750835 88.62491836 -119.80859375 89.77734375 C-124.07972277 92.48456422 -128.32460259 95.20955942 -132.5 98.0625 C-136.66195105 100.86208578 -140.99334886 103.25524216 -145.421875 105.60546875 C-149.28059769 107.68584311 -149.28059769 107.68584311 -153 110 C-153 110.66 -153 111.32 -153 112 C-153.78375 112.185625 -154.5675 112.37125 -155.375 112.5625 C-159.58727284 114.23288406 -162.7692288 116.55659691 -166.421875 119.203125 C-169.43479746 121.30304065 -172.55781152 123.02314092 -175.7890625 124.7578125 C-178.87791307 126.49324445 -181.7694052 128.48402632 -184.69921875 130.47265625 C-187.84031636 132.5578331 -191.07235374 134.47213103 -194.3125 136.3984375 C-201.49000046 140.67572702 -208.58145323 145.08393007 -215.6171875 149.58984375 C-216.6062207 150.22277344 -217.59525391 150.85570312 -218.61425781 151.5078125 C-220.60251365 152.78215358 -222.58888345 154.05944268 -224.57324219 155.33984375 C-225.49008789 155.92765625 -226.40693359 156.51546875 -227.3515625 157.12109375 C-228.58640381 157.91664673 -228.58640381 157.91664673 -229.84619141 158.72827148 C-232 160 -232 160 -235 161 C-235 161.66 -235 162.32 -235 163 C-236.4540625 163.433125 -236.4540625 163.433125 -237.9375 163.875 C-241.10664203 164.64214682 -241.10664203 164.64214682 -242 167 C-166.76 167 -91.52 167 -14 167 C-14 120.14 -14 73.28 -14 25 C-17.54401551 25 -20.42344681 27.55263951 -23.375 29.375 Z " fill="#2BB183" transform="translate(447,63)"/>
<path d="M0 0 C3.5625 0.4375 3.5625 0.4375 5.375 2.625 C7.75 8.25 7.75 8.25 8.5625 10.4375 C9.26375 9.7775 9.965 9.1175 10.6875 8.4375 C14.06513831 6.08783857 15.53554363 5.75206062 19.5625 6.4375 C21.86525556 8.3045991 23.24073871 9.79397741 24.5625 12.4375 C24.82804687 11.65503906 25.09359375 10.87257813 25.3671875 10.06640625 C25.72039062 9.05449219 26.07359375 8.04257812 26.4375 7 C26.95957031 5.48599609 26.95957031 5.48599609 27.4921875 3.94140625 C28.5625 1.4375 28.5625 1.4375 30.5625 0.4375 C34.12750476 0.04999948 35.94730006 0.04314106 39 2 C41.22913541 5.47745124 40.34124381 7.42961957 39.5625 11.4375 C38.85953315 14.09326494 38.03986607 16.70128332 37.1875 19.3125 C36.96344482 20.01141357 36.73938965 20.71032715 36.50854492 21.43041992 C36.06508862 22.81007952 35.61913174 24.18893842 35.17041016 25.56689453 C34.65085772 27.1656137 34.14262096 28.76800278 33.63671875 30.37109375 C32.55837111 33.73885638 31.53599747 36.4772538 29.5625 39.4375 C23.56167966 40.09213495 23.56167966 40.09213495 20.75 38.25 C19.33348528 36.08795122 18.5094511 33.8364428 17.5625 31.4375 C16.9025 31.1075 16.2425 30.7775 15.5625 30.4375 C15.294375 31.365625 15.02625 32.29375 14.75 33.25 C12.9708045 38.02573529 12.9708045 38.02573529 10.5625 39.4375 C6.95238763 39.37303371 4.54027039 39.28040551 1.75 36.875 C0.41317784 34.13099661 -0.28820878 31.51458081 -0.91015625 28.53515625 C-1.53216032 26.06096228 -2.48898684 23.80524368 -3.4375 21.4375 C-7.28823058 8.98623899 -7.28823058 8.98623899 -5.4375 2.4375 C-3.4375 0.4375 -3.4375 0.4375 0 0 Z " fill="#2BB083" transform="translate(285.4375,258.5625)"/>
<path d="M0 0 C4.78606699 3.53450468 7.3565614 8.46406005 8.61328125 14.19140625 C8.89917858 20.48114747 7.1116369 25.99114785 3.61328125 31.19140625 C-0.90442038 35.83459959 -6.46581436 37.75867967 -12.76171875 38.69140625 C-19.32763337 37.78576285 -26.30879316 34.57426802 -30.38671875 29.19140625 C-34.02930027 23.85762617 -34.22414449 18.4412468 -33.38671875 12.19140625 C-32.31526885 9.23680198 -31.02264547 6.90090988 -29.38671875 4.19140625 C-28.72671875 4.19140625 -28.06671875 4.19140625 -27.38671875 4.19140625 C-27.20109375 3.59328125 -27.01546875 2.99515625 -26.82421875 2.37890625 C-21.46446302 -5.77724378 -7.3893393 -4.39076683 0 0 Z M-18.38671875 11.19140625 C-20.217387 15.33030838 -20.72603284 17.2752582 -19.13671875 21.56640625 C-17.65029256 24.2663439 -17.65029256 24.2663439 -15.38671875 25.19140625 C-12.47133846 25.69182771 -12.47133846 25.69182771 -9.38671875 25.19140625 C-6.46968098 22.58142508 -5.4888707 21.02564715 -5.01171875 17.12890625 C-5.41805669 13.31684133 -5.41805669 13.31684133 -7.38671875 10.19140625 C-11.47167065 9.13234465 -15.05488077 8.22977249 -18.38671875 11.19140625 Z " fill="#34B087" transform="translate(269.38671875,260.80859375)"/>
<path d="M0 0 C0 0.66 0 1.32 0 2 C0.66 2 1.32 2 2 2 C2.36040495 7.40607424 2.36040495 7.40607424 0.95703125 9.71875 C-2.0711411 11.70126603 -5.0567102 11.05806357 -8.5 10.6875 C-9.84370668 10.56592654 -11.18745532 10.44481571 -12.53125 10.32421875 C-13.6759375 10.21722656 -14.820625 10.11023438 -16 10 C-16.99 10 -17.98 10 -19 10 C-20.25501301 13.76503904 -20.43566049 17.06261558 -20 21 C-19.08333333 23.08333333 -19.08333333 23.08333333 -17 24 C-13.38976901 24.73041853 -13.38976901 24.73041853 -10 25 C-10 24.34 -10 23.68 -10 23 C-11.65 22.67 -13.3 22.34 -15 22 C-17.125 16.375 -17.125 16.375 -16 13 C-13.04412889 11.52206445 -10.35002355 11.82946349 -7.0625 11.8125 C-5.81597656 11.79832031 -4.56945312 11.78414063 -3.28515625 11.76953125 C0 12 0 12 3 14 C5.17856621 29.01284065 5.17856621 29.01284065 1.34765625 34.265625 C-0.78113367 35.58174837 -2.58247779 36.36915023 -5 37 C-5.680625 37.18949219 -6.36125 37.37898438 -7.0625 37.57421875 C-13.18854578 38.92046671 -18.57250694 37.92487292 -24 35 C-27.94500195 32.24476054 -31.18070514 29.50204058 -33.5 25.25 C-34.6006607 18.09570548 -35.28037924 11.19916993 -31 5 C-22.5014375 -4.87670777 -11.37199101 -5.24861124 0 0 Z " fill="#2FB084" transform="translate(200,261)"/>
<path d="M0 0 C2.83253266 2.31075033 3.83837867 3.515136 5 7 C5.52520103 12.48431076 5.44712085 15.61275529 2 20 C2.72015547 22.88062186 3.72058802 24.66685494 5.625 26.9375 C7.53378601 29.80067901 7.50150625 31.63274378 7 35 C5.4375 36.9375 5.4375 36.9375 3 38 C-0.375 38.1875 -0.375 38.1875 -4 37 C-10 30.9868709 -10 30.9868709 -10 27 C-10.66 27 -11.32 27 -12 27 C-11.95875 28.258125 -11.9175 29.51625 -11.875 30.8125 C-11.7609626 34.29064073 -11.94074319 34.91111478 -14 38 C-16.09375 38.36328125 -16.09375 38.36328125 -18.5 38.3125 C-19.2940625 38.30863281 -20.088125 38.30476563 -20.90625 38.30078125 C-23 38 -23 38 -25 36 C-25.17517747 33.27514272 -25.23149133 30.65340638 -25.1953125 27.9296875 C-25.1924826 27.13345978 -25.18965271 26.33723206 -25.18673706 25.51687622 C-25.1755264 22.96943237 -25.15042062 20.42233789 -25.125 17.875 C-25.11497133 16.14974465 -25.10584528 14.42448381 -25.09765625 12.69921875 C-25.07558422 8.46601086 -25.04104867 4.2330647 -25 0 C-17.27076296 -3.29453617 -7.78923201 -3.31456681 0 0 Z M-12 9 C-12 10.65 -12 12.3 -12 14 C-10.35 14 -8.7 14 -7 14 C-6.40929986 12.05396726 -6.40929986 12.05396726 -6 10 C-7.06645115 8.70366379 -7.06645115 8.70366379 -9.5625 8.9375 C-10.366875 8.958125 -11.17125 8.97875 -12 9 Z " fill="#2CB084" transform="translate(229,260)"/>
<path d="M0 0 C4.18355977 0.86828599 6.8430714 2.77978274 10.26171875 5.27734375 C15.92454093 9.17120815 24.68215505 8.64989258 31.3125 7.6875 C35.63883892 6.05841635 39.99749418 4.00250582 43.3125 0.6875 C46.91527895 0.28719123 48.6895462 0.24487493 51.6875 2.375 C53.58508004 5.07540237 53.67132213 6.45810081 53.3125 9.6875 C52.3225 10.0175 51.3325 10.3475 50.3125 10.6875 C50.3125 11.3475 50.3125 12.0075 50.3125 12.6875 C49.00620673 13.46880543 47.69197173 14.23683177 46.375 15 C45.64410156 15.42925781 44.91320312 15.85851562 44.16015625 16.30078125 C37.13865179 19.72003239 30.74021269 21.22559775 22.9375 21.125 C22.10822998 21.11742676 21.27895996 21.10985352 20.42456055 21.10205078 C10.46074009 20.8353105 1.44244772 17.96834609 -5.6875 10.6875 C-6.9375 8.125 -6.9375 8.125 -6.6875 5.6875 C-4.84063689 2.36314639 -3.72307634 0.95241488 0 0 Z " fill="#32B086" transform="translate(357.6875,191.3125)"/>
<path d="M0 0 C0.78375 0.04125 1.5675 0.0825 2.375 0.125 C-0.25 4 -0.25 4 -3.625 5.125 C-5.12595045 5.21661655 -6.63065414 5.25231727 -8.13439751 5.25363445 C-9.06387038 5.2568589 -9.99334326 5.26008335 -10.95098197 5.2634055 C-11.9738251 5.2618569 -12.99666822 5.2603083 -14.05050659 5.25871277 C-15.13576697 5.26097833 -16.22102734 5.26324388 -17.33917439 5.26557809 C-20.99419333 5.27193392 -24.64917534 5.27108771 -28.30419922 5.27026367 C-30.91718596 5.27325417 -33.53017225 5.27665645 -36.14315796 5.28044128 C-42.51522918 5.28875426 -48.88729115 5.29149642 -55.25936733 5.29205366 C-60.43803054 5.29252852 -65.61669069 5.29458177 -70.79535294 5.29775429 C-85.47208428 5.30656269 -100.14880831 5.31117338 -114.82554232 5.31042381 C-116.01283881 5.31036388 -116.01283881 5.31036388 -117.22412109 5.31030273 C-118.4128643 5.31024141 -118.4128643 5.31024141 -119.62562253 5.31017885 C-132.47105464 5.30977235 -145.31645744 5.31934257 -158.16188107 5.3334411 C-171.34585696 5.34779724 -184.52981855 5.3547117 -197.71380246 5.35384732 C-205.11785756 5.35351509 -212.52188195 5.35627385 -219.92593002 5.36702538 C-226.88782688 5.3770699 -233.84965775 5.37680282 -240.81155777 5.36950874 C-243.37020207 5.36845977 -245.92885037 5.37084418 -248.48748779 5.3768692 C-251.9735779 5.38454797 -255.45944115 5.37997154 -258.94552612 5.37223816 C-259.9639078 5.37738172 -260.98228948 5.38252529 -262.03153121 5.38782471 C-270.49068466 5.34620451 -270.49068466 5.34620451 -274.625 3.125 C-271.67094747 2.27389853 -269.05420083 2.00195912 -265.98417473 2.0075388 C-265.05086071 2.00678114 -264.11754669 2.00602349 -263.15595043 2.00524288 C-262.13397379 2.00951997 -261.11199714 2.01379705 -260.05905151 2.01820374 C-258.97082002 2.01876044 -257.88258852 2.01931715 -256.76138031 2.01989073 C-253.10245382 2.02293506 -249.44358132 2.03312369 -245.78466797 2.04321289 C-243.16666725 2.04676777 -240.54866585 2.0498541 -237.93066406 2.05250549 C-232.28746647 2.05880447 -226.64428333 2.06854501 -221.00109482 2.08040047 C-212.8398012 2.09736645 -204.67851118 2.10692673 -196.51720382 2.1142792 C-183.27334644 2.12622611 -170.02949473 2.14117692 -156.78564453 2.15942383 C-155.59656918 2.16105901 -155.59656918 2.16105901 -154.3834721 2.16272723 C-143.12485132 2.17834944 -131.86623738 2.19694488 -120.60762323 2.2167251 C-119.81429995 2.21811842 -119.02097667 2.21951173 -118.20361328 2.22094727 C-117.0150746 2.22303756 -117.0150746 2.22303756 -115.80252503 2.22517008 C-102.6061081 2.24817889 -89.4096956 2.26351067 -76.21326172 2.27250665 C-68.06882345 2.27836948 -59.92444599 2.29077026 -51.7800317 2.31147944 C-45.54695852 2.32676671 -39.31391674 2.33178676 -33.08082581 2.33292198 C-30.517691 2.3350785 -27.95455654 2.34070083 -25.39143753 2.3499527 C-21.90655323 2.36205002 -18.42187988 2.36200201 -14.9369812 2.35877991 C-13.91054312 2.36528771 -12.88410503 2.37179551 -11.82656276 2.37850052 C-10.89846424 2.37513512 -9.97036571 2.37176973 -9.01414299 2.36830235 C-8.20902586 2.36960386 -7.40390873 2.37090537 -6.57439411 2.37224633 C-3.54558106 1.98809471 -3.26315926 0.15538854 0 0 Z " fill="#5EB398" transform="translate(446.625,243.875)"/>
<path d="M0 0 C2 1 2 1 2.61664295 2.63829136 C3.11579663 5.71337648 3.12943629 8.6706951 3.13371277 11.78733826 C3.13597833 12.46918137 3.13824388 13.15102449 3.14057809 13.85352951 C3.14690612 16.13731491 3.1460895 18.42104079 3.14526367 20.70483398 C3.14825588 22.34261146 3.15165855 23.98038822 3.15544128 25.61816406 C3.16427847 30.06647193 3.16661926 34.51476056 3.16725707 38.96307635 C3.16820652 42.67588824 3.17188517 46.38869565 3.17542917 50.10150582 C3.1835724 58.86007194 3.18601349 67.61862779 3.18530273 76.37719727 C3.18470173 85.41467851 3.19525838 94.45210012 3.2110464 103.48956627 C3.22411681 111.24762549 3.22948685 119.0056652 3.22884732 126.76373535 C3.22859222 131.39780878 3.23145028 136.03182918 3.24202538 140.66589165 C3.25169814 145.02349251 3.25179119 149.38098956 3.24450874 153.73859406 C3.24346193 155.33776819 3.24583152 156.93694876 3.2518692 158.53611183 C3.25957843 160.71942302 3.25495162 162.90237474 3.24723816 165.0856781 C3.24778293 166.30738929 3.24832769 167.52910048 3.24888897 168.78783321 C3.0043962 171.94326253 2.35236247 174.15962002 1 177 C0.67 177 0.34 177 0 177 C-0.15547461 158.94237868 -0.30343216 140.8847111 -0.4429636 122.82695961 C-0.50794876 114.4383186 -0.57519565 106.04970825 -0.64819336 97.66113281 C-0.711974 90.33102931 -0.77107754 83.00090387 -0.82505554 75.67072141 C-0.85366208 71.80639111 -0.88427476 67.94210559 -0.92053413 64.0778389 C-1.11922641 42.69408109 -0.77871334 21.37088757 0 0 Z " fill="#60B898" transform="translate(449,67)"/>
<path d="M0 0 C4.78606699 3.53450468 7.3565614 8.46406005 8.61328125 14.19140625 C8.91037021 20.72736334 6.7745158 25.58276431 3.61328125 31.19140625 C2.95328125 29.87140625 2.29328125 28.55140625 1.61328125 27.19140625 C2.27328125 27.19140625 2.93328125 27.19140625 3.61328125 27.19140625 C2.34353153 22.77618516 2.34353153 22.77618516 -0.38671875 19.19140625 C-1.04671875 20.51140625 -1.70671875 21.83140625 -2.38671875 23.19140625 C-3.37671875 23.19140625 -4.36671875 23.19140625 -5.38671875 23.19140625 C-5.38671875 23.85140625 -5.38671875 24.51140625 -5.38671875 25.19140625 C-8.87607346 27.51764273 -10.29154473 27.44213119 -14.38671875 27.19140625 C-16.76171875 26.69140625 -16.76171875 26.69140625 -18.38671875 26.19140625 C-18.05671875 24.87140625 -17.72671875 23.55140625 -17.38671875 22.19140625 C-17.38671875 22.85140625 -17.38671875 23.51140625 -17.38671875 24.19140625 C-11.9721068 24.80061502 -11.9721068 24.80061502 -7.38671875 22.56640625 C-5.62683509 18.38668257 -6.07484613 14.45499226 -7.38671875 10.19140625 C-12.46975561 10.07819769 -12.46975561 10.07819769 -17.38671875 11.19140625 C-18.04671875 11.85140625 -18.70671875 12.51140625 -19.38671875 13.19140625 C-19.71671875 11.87140625 -20.04671875 10.55140625 -20.38671875 9.19140625 C-19.06671875 8.53140625 -17.74671875 7.87140625 -16.38671875 7.19140625 C-16.38671875 6.86140625 -16.38671875 6.53140625 -16.38671875 6.19140625 C-15.07614482 5.83017744 -13.76318251 5.47760314 -12.44921875 5.12890625 C-11.71832031 4.93167969 -10.98742187 4.73445313 -10.234375 4.53125 C-9.62464844 4.41910156 -9.01492188 4.30695313 -8.38671875 4.19140625 C-8.05671875 4.52140625 -7.72671875 4.85140625 -7.38671875 5.19140625 C-6.72671875 3.54140625 -6.06671875 1.89140625 -5.38671875 0.19140625 C-15.09852233 -0.18348317 -15.09852233 -0.18348317 -24.38671875 2.19140625 C-25.9742811 4.51375253 -26.57343332 6.44656792 -27.38671875 9.19140625 C-28.70671875 8.86140625 -30.02671875 8.53140625 -31.38671875 8.19140625 C-30.72671875 6.87140625 -30.06671875 5.55140625 -29.38671875 4.19140625 C-28.72671875 4.19140625 -28.06671875 4.19140625 -27.38671875 4.19140625 C-27.20109375 3.59328125 -27.01546875 2.99515625 -26.82421875 2.37890625 C-21.46446302 -5.77724378 -7.3893393 -4.39076683 0 0 Z " fill="#30B085" transform="translate(269.38671875,260.80859375)"/>
<path d="M0 0 C3.60199656 2.52906142 4.76443405 4.23787487 6.0625 8.4375 C5.98454913 12.88069934 4.87270176 14.66145471 2 18 C-0.65863745 20.10857453 -1.98701207 20.00023614 -5.4375 19.9375 C-9.73535664 18.80648509 -11.33457591 17.52776718 -14 14 C-15.29342871 10.20055316 -15.19465435 8.53273823 -13.8125 4.75 C-10.44749913 -0.35551856 -5.95291274 -1.13388814 0 0 Z " fill="#37B187" transform="translate(365,157)"/>
<path d="M0 0 C3 1.4375 3 1.4375 5 4 C6.26307299 7.73954755 6.7897208 11.18740274 5.1796875 14.8828125 C3.03495859 17.82293756 1.03924395 18.98691868 -2.375 20.125 C-7.12474915 19.96121555 -9.12942433 18.70940297 -13 16 C-14.74601232 12.50797535 -14.55838804 8.81017721 -14 5 C-10.45718707 -0.59993012 -6.15178032 -1.15903108 0 0 Z " fill="#35B287" transform="translate(406,157)"/>
<path d="M0 0 C1.65 0 3.3 0 5 0 C-4.71428571 8 -4.71428571 8 -9 8 C-9 8.66 -9 9.32 -9 10 C-10.98 10.99 -12.96 11.98 -15 13 C97.365 13.495 97.365 13.495 212 14 C212 14.33 212 14.66 212 15 C98.15 15.495 98.15 15.495 -18 16 C-17.67 14.02 -17.34 12.04 -17 10 C-14.9375 8.625 -14.9375 8.625 -13 8 C-13 7.67 -13 7.34 -13 7 C-11.02 7 -9.04 7 -7 7 C-7.33 6.01 -7.66 5.02 -8 4 C-5.36 3.01 -2.72 2.02 0 1 C0 0.67 0 0.34 0 0 Z " fill="#5CAF92" transform="translate(221,216)"/>
<path d="M0 0 C1.125 1.75 1.125 1.75 2 4 C1.125 6.25 1.125 6.25 0 8 C0.3609375 8.43570312 0.721875 8.87140625 1.09375 9.3203125 C3.46071199 12.35791372 4.89543202 14.39582947 5.5625 18.25 C5 21 5 21 3.4375 22.9375 C-0.26638994 24.55201613 -2.16217029 24.25722008 -6 23 C-12 16.9868709 -12 16.9868709 -12 13 C-12.66 13 -13.32 13 -14 13 C-13.95875 14.258125 -13.9175 15.51625 -13.875 16.8125 C-13.7609626 20.29064073 -13.94074319 20.91111478 -16 24 C-18.1640625 24.29296875 -18.1640625 24.29296875 -20.625 24.1875 C-21.85089844 24.14689453 -21.85089844 24.14689453 -23.1015625 24.10546875 C-23.72804687 24.07066406 -24.35453125 24.03585937 -25 24 C-25.66 22.68 -26.32 21.36 -27 20 C-26.34 20 -25.68 20 -25 20 C-25 20.66 -25 21.32 -25 22 C-22.03 22 -19.06 22 -16 22 C-16 18.04 -16 14.08 -16 10 C-12.535 11.485 -12.535 11.485 -9 13 C-8.7525 12.401875 -8.505 11.80375 -8.25 11.1875 C-6.82997292 8.70245261 -5.27294041 7.68637514 -3 6 C-2.67 5.01 -2.34 4.02 -2 3 C-1.34 3 -0.68 3 0 3 C0 2.01 0 1.02 0 0 Z " fill="#30AE85" transform="translate(231,274)"/>
<path d="M0 0 C2.70226458 2.70226458 2.23664397 4.7978827 2.24884033 8.4680481 C2.24164978 9.37722992 2.23445923 10.28641174 2.22705078 11.22314453 C2.22734283 12.1792865 2.22763489 13.13542847 2.22793579 14.12054443 C2.22653876 17.29139172 2.21095999 20.46200609 2.1953125 23.6328125 C2.1915837 25.82713696 2.1887361 28.02146308 2.18673706 30.21578979 C2.17909015 35.99937514 2.15943259 41.78286049 2.1373291 47.56640625 C2.11689343 53.46482999 2.10774023 59.36326984 2.09765625 65.26171875 C2.07618769 76.84118984 2.04203902 88.42058661 2 100 C1.34 100 0.68 100 0 100 C-1.01826318 76.88242424 -0.99500494 53.81742789 -0.5625 30.6875 C-0.54968616 30.00170364 -0.53687233 29.31590729 -0.5236702 28.60932922 C-0.36289243 20.07259384 -0.18804079 11.53617873 0 3 C-1.04800781 3.6496875 -1.04800781 3.6496875 -2.1171875 4.3125 C-3.48230469 5.1478125 -3.48230469 5.1478125 -4.875 6 C-6.23238281 6.8353125 -6.23238281 6.8353125 -7.6171875 7.6875 C-10 9 -10 9 -12 9 C-12.33 8.01 -12.66 7.02 -13 6 C-11.68 6 -10.36 6 -9 6 C-9 5.34 -9 4.68 -9 4 C-8.01 4 -7.02 4 -6 4 C-6 3.34 -6 2.68 -6 2 C-4.02 1.34 -2.04 0.68 0 0 Z " fill="#5EB196" transform="translate(433,85)"/>
<path d="M0 0 C0.99 0.495 0.99 0.495 2 1 C-0.51636411 5.19394018 -2.50770483 7.926633 -7 10 C-7.99 10 -8.98 10 -10 10 C-10.99 10.825 -11.98 11.65 -13 12.5 C-16 15 -16 15 -19 15 C-19.33 15.99 -19.66 16.98 -20 18 C-22.60242414 19.64820195 -23.86248779 20 -27 20 C-27.495 21.485 -27.495 21.485 -28 23 C-30.59382139 25.32549504 -32.65793524 26.22018489 -36 27 C-36.66 27.66 -37.32 28.32 -38 29 C-38.66 29 -39.32 29 -40 29 C-41.30273151 29.91450027 -42.56914915 30.88127026 -43.8125 31.875 C-46.80297442 34.1841005 -49.43245887 35.71172126 -53 37 C-53.66 37.495 -54.32 37.99 -55 38.5 C-57 40 -57 40 -59.6875 41.0625 C-62.15938605 41.76803846 -62.15938605 41.76803846 -63 44 C-64.65 44 -66.3 44 -68 44 C-66.00121251 41.00181877 -65.45578688 40.51209675 -62.4375 39 C-57.60639673 36.43176358 -53.07057694 33.49775054 -48.5 30.5 C-39.61161018 24.68429291 -39.61161018 24.68429291 -35.5 22.5 C-31.11317691 20.15809831 -26.97879971 17.45816357 -22.8125 14.75 C-22.08345459 14.2765918 -21.35440918 13.80318359 -20.60327148 13.31542969 C-17.01084747 10.9767668 -13.42919193 8.62301951 -9.859375 6.25 C-9.21766357 5.82750977 -8.57595215 5.40501953 -7.91479492 4.96972656 C-6.70212014 4.17118653 -5.49374156 3.36607434 -4.2902832 2.55371094 C-2.89870857 1.64086132 -1.4533159 0.81095454 0 0 Z " fill="#50B191" transform="translate(287,155)"/>
<path d="M0 0 C0.33 0 0.66 0 1 0 C1.04632565 12.9520119 1.08187043 25.90400411 1.10362434 38.85608196 C1.11406473 44.87014885 1.12822871 50.88415908 1.15087891 56.89819336 C1.172598 62.70127228 1.18456671 68.50429668 1.18975449 74.3074131 C1.1934519 76.52220328 1.20067194 78.73699044 1.21146011 80.95175743 C1.22596246 84.05213258 1.22797845 87.15228198 1.22705078 90.25268555 C1.23783661 91.62833176 1.23783661 91.62833176 1.24884033 93.0317688 C1.23445866 97.46914635 1.10195703 100.9684239 -1 105 C-1.33 105 -1.66 105 -2 105 C-1.97494385 103.70231689 -1.9498877 102.40463379 -1.92407227 101.06762695 C-1.2738376 67.3785838 -0.63307513 33.68936988 0 0 Z " fill="#C0DFD4" transform="translate(451,139)"/>
<path d="M0 0 C0 4 0 4 -1 7 C-2.32 7 -3.64 7 -5 7 C-7.64632287 7.3121764 -7.64632287 7.3121764 -10 8 C-10.33 8.66 -10.66 9.32 -11 10 C-14.38035912 10.62599243 -17.56169885 11 -21 11 C-20.67 8.36 -20.34 5.72 -20 3 C-13.21256822 0.18447274 -7.31110994 -0.3689719 0 0 Z " fill="#28B082" transform="translate(264,260)"/>
<path d="M0 0 C5.94 0.66 11.88 1.32 18 2 C18.33 4.31 18.66 6.62 19 9 C18.34 9 17.68 9 17 9 C17 8.34 17 7.68 17 7 C14.03 6.505 14.03 6.505 11 6 C11 6.66 11 7.32 11 8 C3.5027933 8.36871508 3.5027933 8.36871508 1.125 6.625 C0.75375 6.08875 0.3825 5.5525 0 5 C-0.66 4.34 -1.32 3.68 -2 3 C-1.34 2.01 -0.68 1.02 0 0 Z " fill="#29AE81" transform="translate(179,259)"/>
<path d="M0 0 C3.0580595 1.32959109 4.24680542 2.37671545 5.875 5.25 C4.885 5.745 4.885 5.745 3.875 6.25 C3.875 5.59 3.875 4.93 3.875 4.25 C-0.86379768 3.10149303 -5.58791362 2.92098443 -10.4375 2.6875 C-11.27345703 2.64431641 -12.10941406 2.60113281 -12.97070312 2.55664062 C-15.02196935 2.45114693 -17.0734648 2.35012685 -19.125 2.25 C-20.18119003 6.53297531 -20.24202092 10.67985646 -20.1875 15.0625 C-20.18298828 15.75537109 -20.17847656 16.44824219 -20.17382812 17.16210938 C-20.16213156 18.85811068 -20.14419924 20.55406703 -20.125 22.25 C-20.785 22.58 -21.445 22.91 -22.125 23.25 C-22.125 15.99 -22.125 8.73 -22.125 1.25 C-15.08974235 -1.56410306 -7.43134465 -1.77844145 0 0 Z " fill="#65B89C" transform="translate(226.125,258.75)"/>
<path d="M0 0 C0.66 0 1.32 0 2 0 C1.40909091 7.09090909 1.40909091 7.09090909 -0.125 10.5 C-2 12 -2 12 -5.5 12.4375 C-9 12 -9 12 -10.8125 10.8125 C-12.22901472 8.65045122 -13.0530489 6.3989428 -14 4 C-14.66 3.67 -15.32 3.34 -16 3 C-16.33 4.65 -16.66 6.3 -17 8 C-17.33 8 -17.66 8 -18 8 C-18 6.02 -18 4.04 -18 2 C-16.35 1.67 -14.7 1.34 -13 1 C-13 1.66 -13 2.32 -13 3 C-12.01 3 -11.02 3 -10 3 C-9.67 4.32 -9.34 5.64 -9 7 C-8.443125 6.649375 -7.88625 6.29875 -7.3125 5.9375 C-4.46113217 4.78154007 -2.91482778 5.19032562 0 6 C0 4.02 0 2.04 0 0 Z " fill="#48B28F" transform="translate(317,286)"/>
<path d="M0 0 C2.2154352 1.73792285 3.42436008 3.67063049 4.55859375 6.22265625 C1.14497573 5.02327695 -1.00629621 3.88968153 -3.44140625 1.22265625 C-8.34279438 -1.22803781 -15.65090611 -0.11953894 -20.94140625 0.78515625 C-24.62140255 2.2965833 -24.9677943 2.47062887 -26.44140625 5.84765625 C-26.77140625 6.96140625 -27.10140625 8.07515625 -27.44140625 9.22265625 C-28.76140625 8.89265625 -30.08140625 8.56265625 -31.44140625 8.22265625 C-30.78140625 6.90265625 -30.12140625 5.58265625 -29.44140625 4.22265625 C-28.78140625 4.22265625 -28.12140625 4.22265625 -27.44140625 4.22265625 C-27.25578125 3.62453125 -27.07015625 3.02640625 -26.87890625 2.41015625 C-21.50176232 -5.77245408 -7.43627671 -4.31334969 0 0 Z " fill="#54B191" transform="translate(269.44140625,260.77734375)"/>
<path d="M0 0 C0.66 0.33 1.32 0.66 2 1 C-2.43076923 6.78461538 -2.43076923 6.78461538 -5.3125 7.875 C-6.1478125 7.936875 -6.1478125 7.936875 -7 8 C-6.690625 8.928125 -6.690625 8.928125 -6.375 9.875 C-6.25125 10.57625 -6.1275 11.2775 -6 12 C-6.66 12.66 -7.32 13.32 -8 14 C-8.02044215 17.26274736 -8.02044215 17.26274736 -7.625 20.9375 C-7 27.96511628 -7 27.96511628 -7 31 C-9 30 -9 30 -10.125 27.625 C-11.59647075 21.52890688 -11.91013408 15.58669687 -9.8125 9.625 C-7.04749026 5.62050313 -4.04248226 2.69498817 0 0 Z " fill="#59B194" transform="translate(177,259)"/>
<path d="M0 0 C2.5654594 2.5654594 2.54046087 4.47686668 3 8 C1.35 8.33 -0.3 8.66 -2 9 C-2 9.99 -2 10.98 -2 12 C-2.99 11.67 -3.98 11.34 -5 11 C-4.67 9.35 -4.34 7.7 -4 6 C-4.99 6 -5.98 6 -7 6 C-7 4.35 -7 2.7 -7 1 C-4.48718205 -0.25640898 -2.78302919 -0.20872719 0 0 Z " fill="#2BAC82" transform="translate(288,260)"/>
<path d="M0 0 C3.125 0.375 3.125 0.375 5.5625 1.9375 C7.79661222 5.42271506 6.91158954 7.35285143 6.125 11.375 C5.35883276 14.21783955 4.4765177 17.01412087 3.5625 19.8125 C3.32853516 20.54404297 3.09457031 21.27558594 2.85351562 22.02929688 C2.28232778 23.81280179 1.70436877 25.59413583 1.125 27.375 C0.795 27.375 0.465 27.375 0.125 27.375 C0.07104522 25.75036158 0.03222805 24.12521459 0 22.5 C-0.02320313 21.59507812 -0.04640625 20.69015625 -0.0703125 19.7578125 C0.125 17.375 0.125 17.375 2.125 15.375 C2.8087613 12.48782395 2.8087613 12.48782395 3.25 9.25 C3.50136719 7.60644531 3.50136719 7.60644531 3.7578125 5.9296875 C3.87898438 5.08664062 4.00015625 4.24359375 4.125 3.375 C1.155 3.045 -1.815 2.715 -4.875 2.375 C-2.875 0.375 -2.875 0.375 0 0 Z " fill="#5CB296" transform="translate(318.875,258.625)"/>
<path d="M0 0 C3.465 1.485 3.465 1.485 7 3 C7.33 2.34 7.66 1.68 8 1 C8.93065133 3.60582371 9.14917407 4.64198224 8.0625 7.25 C7.5365625 8.11625 7.5365625 8.11625 7 9 C4 5.25 4 5.25 4 3 C3.34 3 2.68 3 2 3 C2.04125 4.258125 2.0825 5.51625 2.125 6.8125 C2.2390374 10.29064073 2.05925681 10.91111478 0 14 C-2.1640625 14.29296875 -2.1640625 14.29296875 -4.625 14.1875 C-5.44226563 14.16042969 -6.25953125 14.13335937 -7.1015625 14.10546875 C-7.72804687 14.07066406 -8.35453125 14.03585937 -9 14 C-9.66 12.68 -10.32 11.36 -11 10 C-10.34 10 -9.68 10 -9 10 C-9 10.66 -9 11.32 -9 12 C-6.03 12 -3.06 12 0 12 C0 8.04 0 4.08 0 0 Z " fill="#5BB596" transform="translate(215,284)"/>
<path d="M0 0 C0.66 0.33 1.32 0.66 2 1 C1.67 3.64 1.34 6.28 1 9 C2.65 9.99 4.3 10.98 6 12 C5.67 13.32 5.34 14.64 5 16 C6.65 16.33 8.3 16.66 10 17 C10 17.33 10 17.66 10 18 C5.81766696 17.75398041 3.49863166 17.37939366 0.125 14.8125 C-2.28646364 11.62085694 -3 9.98860061 -3 6 C-1.5625 2.625 -1.5625 2.625 0 0 Z " fill="#43AD8B" transform="translate(353,159)"/>
<path d="M0 0 C0.33 1.32 0.66 2.64 1 4 C-5.40276407 7.67818361 -5.40276407 7.67818361 -8.36328125 9.2734375 C-9.15089844 9.69882813 -9.93851562 10.12421875 -10.75 10.5625 C-11.85601562 11.15224609 -11.85601562 11.15224609 -12.984375 11.75390625 C-15.04882902 12.91313827 -15.04882902 12.91313827 -16.56640625 14.640625 C-18 16 -18 16 -21.1875 16.1875 C-22.5796875 16.0946875 -22.5796875 16.0946875 -24 16 C-20.17318893 12.81823852 -16.19426017 10.09476099 -12 7.4375 C-11.39671875 7.05142578 -10.7934375 6.66535156 -10.171875 6.26757812 C-6.8125768 4.12419982 -3.42776257 2.03198804 0 0 Z " fill="#57B292" transform="translate(359,110)"/>
<path d="M0 0 C2.27057377 -0.05398987 4.54151288 -0.09278742 6.8125 -0.125 C8.07707031 -0.14820313 9.34164062 -0.17140625 10.64453125 -0.1953125 C14 0 14 0 17 2 C17.34057617 3.87939453 17.34057617 3.87939453 17.29296875 6.1328125 C17.28330078 6.93847656 17.27363281 7.74414062 17.26367188 8.57421875 C17.23853516 9.41597656 17.21339844 10.25773437 17.1875 11.125 C17.16719727 12.39923828 17.16719727 12.39923828 17.14648438 13.69921875 C17.11108219 15.79974837 17.05727401 17.89995293 17 20 C15.02 20.99 15.02 20.99 13 22 C13.66666667 15.33333333 14.33333333 8.66666667 15 2 C10.05 1.67 5.1 1.34 0 1 C0 0.67 0 0.34 0 0 Z " fill="#63B599" transform="translate(186,273)"/>
<path d="M0 0 C-2.3707504 1.42245024 -4.74163558 2.84466754 -7.11328125 4.265625 C-9.03011211 5.4172798 -10.94420792 6.57349975 -12.85546875 7.734375 C-14.19544922 8.54648438 -14.19544922 8.54648438 -15.5625 9.375 C-16.38878906 9.87773437 -17.21507812 10.38046875 -18.06640625 10.8984375 C-20 12 -20 12 -21 12 C-21 9.69 -21 7.38 -21 5 C-19.02 4.34 -17.04 3.68 -15 3 C-14.67 3.66 -14.34 4.32 -14 5 C-13.01 5 -12.02 5 -11 5 C-11 4.34 -11 3.68 -11 3 C-9.35 2.67 -7.7 2.34 -6 2 C-6 1.34 -6 0.68 -6 0 C-3.50907189 -1.24546405 -2.58919267 -0.7767578 0 0 Z " fill="#4FB794" transform="translate(359,134)"/>
<path d="M0 0 C1.32 0.33 2.64 0.66 4 1 C-18.10679612 16 -18.10679612 16 -22 16 C-22 15.01 -22 14.02 -22 13 C-20.35 13 -18.7 13 -17 13 C-17 12.34 -17 11.68 -17 11 C-16.34 11 -15.68 11 -15 11 C-15 10.34 -15 9.68 -15 9 C-14.01 9 -13.02 9 -12 9 C-12 8.34 -12 7.68 -12 7 C-11.01 7 -10.02 7 -9 7 C-9 6.34 -9 5.68 -9 5 C-6.69723426 2.78252188 -5.47519908 2.03239994 -2.25 1.8125 C-1.13625 1.9053125 -1.13625 1.9053125 0 2 C0 1.34 0 0.68 0 0 Z " fill="#6CBDA6" transform="translate(321,154)"/>
<path d="M0 0 C1.4540625 0.0309375 1.4540625 0.0309375 2.9375 0.0625 C2.9375 0.3925 2.9375 0.7225 2.9375 1.0625 C1.2875 1.0625 -0.3625 1.0625 -2.0625 1.0625 C-2.10375 1.660625 -2.145 2.25875 -2.1875 2.875 C-3.0625 5.0625 -3.0625 5.0625 -5.625 6.6875 C-12.9967527 9.63620108 -19.19314592 10.35276306 -27.0625 10.0625 C-27.0625 9.4025 -27.0625 8.7425 -27.0625 8.0625 C-26.32386719 8.05992187 -25.58523438 8.05734375 -24.82421875 8.0546875 C-15.35404156 7.69368964 -8.12312583 0.16577808 0 0 Z " fill="#5FB895" transform="translate(404.0625,191.9375)"/>
<path d="M0 0 C1.3749149 2.90259811 2 4.76138705 2 8 C-0.31 8 -2.62 8 -5 8 C-5 7.34 -5 6.68 -5 6 C-5.99 6 -6.98 6 -8 6 C-6.53781513 1.3697479 -6.53781513 1.3697479 -4 -0.375 C-2 -1 -2 -1 0 0 Z " fill="#2BAF82" transform="translate(233,287)"/>
<path d="M0 0 C0.66 0.33 1.32 0.66 2 1 C1.07161713 2.31896465 0.13194268 3.62998689 -0.8125 4.9375 C-1.59560547 6.03384766 -1.59560547 6.03384766 -2.39453125 7.15234375 C-4 9 -4 9 -7 10 C-8.66621616 10.03874921 -10.33394172 10.0450286 -12 10 C-12 10.66 -12 11.32 -12 12 C-12.99 11.67 -13.98 11.34 -15 11 C-12.18254412 7.97238424 -9.39343882 5.87008523 -5.8125 3.8125 C-2.72355344 2.15117899 -2.72355344 2.15117899 0 0 Z " fill="#46B18C" transform="translate(389,91)"/>
<path d="M0 0 C0.33 0 0.66 0 1 0 C1.33 1.65 1.66 3.3 2 5 C2.66 5 3.32 5 4 5 C3.67 6.32 3.34 7.64 3 9 C2.01 9 1.02 9 0 9 C0 9.66 0 10.32 0 11 C-3.48935471 13.32623648 -4.90482598 13.25072494 -9 13 C-11.375 12.5 -11.375 12.5 -13 12 C-12.67 10.68 -12.34 9.36 -12 8 C-12 8.66 -12 9.32 -12 10 C-6.60441443 10.62187701 -6.60441443 10.62187701 -2.0625 8.375 C-0.81596496 5.58862755 -0.34370277 3.02458441 0 0 Z " fill="#56B595" transform="translate(264,275)"/>
<path d="M0 0 C0.33 0.99 0.66 1.98 1 3 C0.2575 3.268125 -0.485 3.53625 -1.25 3.8125 C-3.98313408 4.86563775 -3.98313408 4.86563775 -6 6.5 C-8 8 -8 8 -10.6875 9.0625 C-13.15938605 9.76803846 -13.15938605 9.76803846 -14 12 C-15.65 12 -17.3 12 -19 12 C-16.93139183 8.89708774 -15.94335668 8.21891801 -12.75 6.5625 C-9.91284358 5.05483234 -7.19939214 3.52355823 -4.5625 1.6875 C-2 0 -2 0 0 0 Z " fill="#63B498" transform="translate(238,187)"/>
<path d="M0 0 C0.99 0.66 1.98 1.32 3 2 C2.34 2.66 1.68 3.32 1 4 C0.01 4 -0.98 4 -2 4 C-2 4.66 -2 5.32 -2 6 C-3.6796875 7.2890625 -3.6796875 7.2890625 -5.875 8.625 C-6.59429687 9.07101563 -7.31359375 9.51703125 -8.0546875 9.9765625 C-10 11 -10 11 -12 11 C-11.67 9.35 -11.34 7.7 -11 6 C-9.68 6 -8.36 6 -7 6 C-6.34 4.35 -5.68 2.7 -5 1 C-3.35 1.33 -1.7 1.66 0 2 C0 1.34 0 0.68 0 0 Z " fill="#40B288" transform="translate(296,169)"/>
<path d="M0 0 C1.2890625 2.0625 1.2890625 2.0625 2 4 C0.68 4 -0.64 4 -2 4 C-2 3.34 -2 2.68 -2 2 C-10.68036954 2.57302279 -10.68036954 2.57302279 -19 5 C-17.51622262 2.03244524 -15.33077821 1.18344083 -12.40234375 -0.23046875 C-8.31136934 -1.54091096 -4.05183189 -1.44600692 0 0 Z " fill="#62B89D" transform="translate(447,63)"/>
<path d="M0 0 C1 1 1 1 1.0625 3.5625 C1.041875 4.366875 1.02125 5.17125 1 6 C0.01 6 -0.98 6 -2 6 C-2 6.66 -2 7.32 -2 8 C-4.31 7.67 -6.62 7.34 -9 7 C-9 4.69 -9 2.38 -9 0 C-5.90842747 -1.54578627 -3.31526981 -0.60277633 0 0 Z M-7 1 C-7 2.65 -7 4.3 -7 6 C-5.35 6 -3.7 6 -2 6 C-1.40929986 4.05396726 -1.40929986 4.05396726 -1 2 C-2.06645115 0.70366379 -2.06645115 0.70366379 -4.5625 0.9375 C-5.366875 0.958125 -6.17125 0.97875 -7 1 Z " fill="#48B592" transform="translate(224,268)"/>
<path d="M0 0 C3.3125 -0.3125 3.3125 -0.3125 7 0 C8.6875 1.9375 8.6875 1.9375 10 5 C10.350625 5.74765625 10.70125 6.4953125 11.0625 7.265625 C14 13.58940972 14 13.58940972 14 16 C11.578125 15.34765625 11.578125 15.34765625 9 14 C8.109375 11.43359375 8.109375 11.43359375 7.75 8.4375 C7.5734867 4.90777311 7.5734867 4.90777311 6 2 C3.66702567 1.95907063 1.33294775 1.95758277 -1 2 C-0.67 1.34 -0.34 0.68 0 0 Z " fill="#62B79C" transform="translate(282,259)"/>
<path d="M0 0 C0.66 0 1.32 0 2 0 C1.67 3.96 1.34 7.92 1 12 C-3 10 -3 10 -4 7.6875 C-4 3.96671471 -2.57586787 2.57586787 0 0 Z " fill="#37B28A" transform="translate(355,192)"/>
<path d="M0 0 C1.125 1.75 1.125 1.75 2 4 C1.125 6.25 1.125 6.25 0 8 C0.3609375 8.43570312 0.721875 8.87140625 1.09375 9.3203125 C4.20577001 13.31407151 5.64165788 15.73840541 5 21 C3.22293791 18.33440687 2.12451727 15.9719385 1 13 C0.34 13 -0.32 13 -1 13 C-3.125 6.375 -3.125 6.375 -2 3 C-1.34 3 -0.68 3 0 3 C0 2.01 0 1.02 0 0 Z " fill="#67C09C" transform="translate(231,274)"/>
<path d="M0 0 C0.33 0 0.66 0 1 0 C1.05413245 2.89608593 1.09373641 5.79115195 1.125 8.6875 C1.15013672 9.91243164 1.15013672 9.91243164 1.17578125 11.16210938 C1.2114802 15.57092929 1.07580814 18.98731576 -1 23 C-1.33 23 -1.66 23 -2 23 C-2 18.38 -2 13.76 -2 9 C-1.67 9 -1.34 9 -1 9 C-0.67 6.03 -0.34 3.06 0 0 Z " fill="#9ED3C2" transform="translate(451,221)"/>
<path d="M0 0 C0.66 0 1.32 0 2 0 C1.40909091 7.09090909 1.40909091 7.09090909 -0.125 10.5 C-3.02617338 12.8209387 -5.41795804 12.39076821 -9 12 C-9.66 11.34 -10.32 10.68 -11 10 C-6.545 9.505 -6.545 9.505 -2 9 C-2 8.34 -2 7.68 -2 7 C-2.66 6.67 -3.32 6.34 -4 6 C-2.68 6 -1.36 6 0 6 C0 4.02 0 2.04 0 0 Z " fill="#66B69A" transform="translate(317,286)"/>
<path d="M0 0 C-10.37357631 7.48291572 -10.37357631 7.48291572 -16 10 C-16 8.68 -16 7.36 -16 6 C-14.906875 5.566875 -13.81375 5.13375 -12.6875 4.6875 C-9.85568573 3.48526094 -8.08289516 2.29118468 -6 0 C-3 -1 -3 -1 0 0 Z " fill="#5CBB9A" transform="translate(395,111)"/>
<path d="M0 0 C1.65 0 3.3 0 5 0 C3.02 0.99 3.02 0.99 1 2 C1 2.66 1 3.32 1 4 C-0.64453125 5.32421875 -0.64453125 5.32421875 -2.8125 6.6875 C-3.52019531 7.14511719 -4.22789062 7.60273437 -4.95703125 8.07421875 C-7 9 -7 9 -10 8 C-9.67 7.01 -9.34 6.02 -9 5 C-6.08961104 3.5841351 -3.153498 2.70077733 0 2 C0 1.34 0 0.68 0 0 Z " fill="#56B597" transform="translate(411,97)"/>
<path d="M0 0 C7.43378943 -0.33452052 13.19877155 -0.13902852 20 3 C16.78325231 4.60837385 13.46068124 3.63218544 10 3.1875 C9.26265625 3.10435547 8.5253125 3.02121094 7.765625 2.93554688 C2.24553571 2.24553571 2.24553571 2.24553571 0 0 Z " fill="#5AB496" transform="translate(180,258)"/>
<path d="M0 0 C0.99 0 1.98 0 3 0 C2.67 0.99 2.34 1.98 2 3 C6.29 3.33 10.58 3.66 15 4 C15 4.33 15 4.66 15 5 C9.61509359 5.91657981 4.45769811 6.11138159 -1 6 C-0.67 4.02 -0.34 2.04 0 0 Z " fill="#46AF89" transform="translate(204,226)"/>
<path d="M0 0 C1.32 0.33 2.64 0.66 4 1 C-0.47630908 4.03233841 -6.72352394 7.60696298 -12.27734375 6.578125 C-12.84582031 6.38734375 -13.41429687 6.1965625 -14 6 C-11.09399739 4.74335022 -9.20395416 4 -6 4 C-6 3.34 -6 2.68 -6 2 C-4.02 2 -2.04 2 0 2 C0 1.34 0 0.68 0 0 Z " fill="#62B399" transform="translate(400,205)"/>
<path d="M0 0 C3.3 0 6.6 0 10 0 C10 1.32 10 2.64 10 4 C6.04 4 2.08 4 -2 4 C-2 3.34 -2 2.68 -2 2 C-1.34 2 -0.68 2 0 2 C0 1.34 0 0.68 0 0 Z " fill="#57BB9B" transform="translate(183,267)"/>
<path d="M0 0 C3.5944274 0.59907123 4.73943528 1.7177665 7 4.5 C6.34 5.82 5.68 7.14 5 8.5 C5 6.85 5 5.2 5 3.5 C1.7 3.5 -1.6 3.5 -5 3.5 C-5.33 4.49 -5.66 5.48 -6 6.5 C-6.33 5.84 -6.66 5.18 -7 4.5 C-4.73943528 1.7177665 -3.5944274 0.59907123 0 0 Z " fill="#66B39A" transform="translate(302,264.5)"/>
<path d="M0 0 C0 2 0 2 -1.3125 3.375 C-1.869375 3.91125 -2.42625 4.4475 -3 5 C-5.54052232 7.93137191 -6.46611982 10.15606267 -7 14 C-7.33 14 -7.66 14 -8 14 C-8.78095685 6.03424015 -8.78095685 6.03424015 -5.6875 1.9375 C-3 0 -3 0 0 0 Z " fill="#64B59A" transform="translate(400,157)"/>
<path d="M0 0 C0.33 0 0.66 0 1 0 C1 1.65 1 3.3 1 5 C1.99 5 2.98 5 4 5 C3.67 7.31 3.34 9.62 3 12 C2.34 12 1.68 12 1 12 C-1.22923777 7.67265609 -0.92470553 4.71599818 0 0 Z " fill="#51B193" transform="translate(280,261)"/>
<path d="M0 0 C2.35953094 2.35953094 2.49141413 3.77895617 3 7 C4.65 7.33 6.3 7.66 8 8 C8 8.66 8 9.32 8 10 C9.65 10.33 11.3 10.66 13 11 C13 11.33 13 11.66 13 12 C8.81766696 11.75398041 6.49863166 11.37939366 3.125 8.8125 C0.80397151 5.74055052 0.26502196 3.79864807 0 0 Z " fill="#6FBDA6" transform="translate(350,165)"/>
<path d="M0 0 C-2.6296949 2.92188322 -5.64494149 4.97298548 -9 7 C-9.99 7 -10.98 7 -12 7 C-12 6.34 -12 5.68 -12 5 C-11.34 5 -10.68 5 -10 5 C-10 4.01 -10 3.02 -10 2 C-6.3558226 -0.4294516 -4.28758728 -0.16179575 0 0 Z " fill="#5BB696" transform="translate(338,146)"/>
<path d="M0 0 C1.32 0.66 2.64 1.32 4 2 C3.67 2.99 3.34 3.98 3 5 C3.66 5 4.32 5 5 5 C4.67 5.99 4.34 6.98 4 8 C1.0625 7.1875 1.0625 7.1875 -2 6 C-2.33 5.01 -2.66 4.02 -3 3 C-2 2 -1 1 0 0 Z " fill="#29AA7F" transform="translate(187,275)"/>
<path d="M0 0 C0.66 0.33 1.32 0.66 2 1 C2 1.66 2 2.32 2 3 C0.390625 4.32421875 0.390625 4.32421875 -1.75 5.6875 C-2.44609375 6.14511719 -3.1421875 6.60273438 -3.859375 7.07421875 C-6 8 -6 8 -10 7 C-6.7 4.69 -3.4 2.38 0 0 Z " fill="#66BE9E" transform="translate(277,161)"/>
<path d="M0 0 C0.66 0.33 1.32 0.66 2 1 C-3.91684902 7.86214442 -3.91684902 7.86214442 -8.4375 8.4375 C-9.283125 8.293125 -10.12875 8.14875 -11 8 C-7.45960866 5.0843836 -3.8373228 2.49872182 0 0 Z " fill="#5DBA9A" transform="translate(346,118)"/>
<path d="M0 0 C0.66 0.33 1.32 0.66 2 1 C0.05063872 3.38255267 -1.11691913 4.03741412 -4.125 5 C-5.548125 5.495 -5.548125 5.495 -7 6 C-7.33 6.99 -7.66 7.98 -8 9 C-9.65 9 -11.3 9 -13 9 C-9.00302635 5.62755348 -4.72909821 2.28625278 0 0 Z " fill="#58B495" transform="translate(404,82)"/>
<path d="M0 0 C0.33 0.66 0.66 1.32 1 2 C-0.32539861 4.65079721 -1.61974614 4.90342592 -4.3125 6.0625 C-5.48232422 6.57490234 -5.48232422 6.57490234 -6.67578125 7.09765625 C-8.77560797 7.91288309 -10.80410124 8.51258082 -13 9 C-9.39299028 4.76568424 -4.85413839 2.5307901 0 0 Z " fill="#6AB79C" transform="translate(419,73)"/>
<path d="M0 0 C-4.9731874 4.08511822 -8.62505604 4.12259508 -15 4 C-15 3.34 -15 2.68 -15 2 C-13.43883181 1.66048381 -11.87598662 1.32867456 -10.3125 1 C-9.44238281 0.814375 -8.57226562 0.62875 -7.67578125 0.4375 C-5.06287036 0.01027953 -2.64186962 -0.07616201 0 0 Z " fill="#7AC0AC" transform="translate(199,295)"/>
<path d="M0 0 C0.66 0 1.32 0 2 0 C2 0.66 2 1.32 2 2 C5.3 1.67 8.6 1.34 12 1 C11.01 2.32 10.02 3.64 9 5 C5.625 4.75 5.625 4.75 2 4 C0.5625 1.9375 0.5625 1.9375 0 0 Z " fill="#68B89F" transform="translate(287,293)"/>
<path d="M0 0 C-0.33 1.65 -0.66 3.3 -1 5 C-4.28976808 6.09658936 -5.71303767 5.79953138 -9 5 C-2.87096774 0 -2.87096774 0 0 0 Z " fill="#54BB94" transform="translate(193,215)"/>
<path d="M0 0 C-2.25 2.5 -2.25 2.5 -5 5 C-6.32 5 -7.64 5 -9 5 C-8.625 3.0625 -8.625 3.0625 -8 1 C-5.29120665 -0.35439668 -2.99066732 -0.06501451 0 0 Z " fill="#47AF8B" transform="translate(260,176)"/>
<path d="M0 0 C0.66 0.33 1.32 0.66 2 1 C0.625 2.5 0.625 2.5 -1 4 C-1.66 4 -2.32 4 -3 4 C-3 4.99 -3 5.98 -3 7 C-5.70879335 8.35439668 -8.00933268 8.06501451 -11 8 C-7.45960866 5.0843836 -3.8373228 2.49872182 0 0 Z " fill="#6BBDA0" transform="translate(333,126)"/>
<path d="M0 0 C1 3 1 3 0.22265625 5.04296875 C-0.16019531 5.75066406 -0.54304688 6.45835937 -0.9375 7.1875 C-1.31777344 7.90292969 -1.69804687 8.61835938 -2.08984375 9.35546875 C-2.54037109 10.16951172 -2.54037109 10.16951172 -3 11 C-3.66 9.68 -4.32 8.36 -5 7 C-4.34 7 -3.68 7 -3 7 C-3.33 5.02 -3.66 3.04 -4 1 C-2.02 1.495 -2.02 1.495 0 2 C0 1.34 0 0.68 0 0 Z " fill="#59B496" transform="translate(276,281)"/>
<path d="M0 0 C1.07310858 3.27185553 0.89263102 5.42947592 0.0625 8.75 C-0.22947266 9.94882812 -0.22947266 9.94882812 -0.52734375 11.171875 C-0.68332031 11.77515625 -0.83929688 12.3784375 -1 13 C-1.99 12.67 -2.98 12.34 -4 12 C-2.66666667 8 -1.33333333 4 0 0 Z " fill="#6DC3A8" transform="translate(313,262)"/>
<path d="M0 0 C1.98 0 3.96 0 6 0 C4.9375 1.9375 4.9375 1.9375 3 4 C-0.5 4.875 -0.5 4.875 -4 5 C-4.99 4.34 -5.98 3.68 -7 3 C-4.03 3 -1.06 3 2 3 C2 2.34 2 1.68 2 1 C1.34 0.67 0.68 0.34 0 0 Z " fill="#67BCA1" transform="translate(404,172)"/>
<path d="M0 0 C3.63 0 7.26 0 11 0 C9.515 1.485 9.515 1.485 8 3 C4.375 2.8125 4.375 2.8125 1 2 C0.67 1.34 0.34 0.68 0 0 Z " fill="#6BBBA0" transform="translate(224,295)"/>
<path d="M0 0 C2.78211944 0.37596209 4.5879284 0.67318459 6.8125 2.4375 C8 4 8 4 8 6 C9.32 6.33 10.64 6.66 12 7 C11.01 7.495 11.01 7.495 10 8 C5.67981918 5.87918396 2.55203501 4.20335178 0 0 Z " fill="#66B79C" transform="translate(170,290)"/>
<path d="M0 0 C0.33 0.66 0.66 1.32 1 2 C0.34 2 -0.32 2 -1 2 C-1.33 2.99 -1.66 3.98 -2 5 C-3.32 5 -4.64 5 -6 5 C-6.66 6.32 -7.32 7.64 -8 9 C-8.99 8.34 -9.98 7.68 -11 7 C-9.68 6.67 -8.36 6.34 -7 6 C-7 5.34 -7 4.68 -7 4 C-4.69 2.68 -2.38 1.36 0 0 Z " fill="#6EBC9E" transform="translate(321,134)"/>
<path d="M0 0 C1.32 0.66 2.64 1.32 4 2 C2.71186658 2.83878455 1.41936744 3.67086783 0.125 4.5 C-0.59429687 4.9640625 -1.31359375 5.428125 -2.0546875 5.90625 C-4 7 -4 7 -6 7 C-6 6.01 -6 5.02 -6 4 C-5.01 4 -4.02 4 -3 4 C-3 3.34 -3 2.68 -3 2 C-2.01 2 -1.02 2 0 2 C0 1.34 0 0.68 0 0 Z " fill="#52B294" transform="translate(369,123)"/>
<path d="M0 0 C2.4375 0.375 2.4375 0.375 5 1 C5.33 1.66 5.66 2.32 6 3 C7.64363134 3.72159424 9.31050386 4.39351421 11 5 C11 5.66 11 6.32 11 7 C6.00724943 5.72278474 3.42388092 3.82669043 0 0 Z " fill="#5FB095" transform="translate(241,291)"/>
<path d="M0 0 C0.99 0.33 1.98 0.66 3 1 C3.33 2.65 3.66 4.3 4 6 C2.02 6.99 2.02 6.99 0 8 C-1.09658936 4.71023192 -0.79953138 3.28696233 0 0 Z " fill="#49AE8B" transform="translate(268,287)"/>
<path d="M0 0 C0.33 1.32 0.66 2.64 1 4 C-0.66666667 4 -2.33333333 4 -4 4 C-4 3.01 -4 2.02 -4 1 C-2.68 0.67 -1.36 0.34 0 0 Z M-7 4 C-6.01 4.33 -5.02 4.66 -4 5 C-4 5.66 -4 6.32 -4 7 C-5.65 6.67 -7.3 6.34 -9 6 C-8.34 5.34 -7.68 4.68 -7 4 Z " fill="#25B58A" transform="translate(290,268)"/>
<path d="M0 0 C1.98 0.66 3.96 1.32 6 2 C3.66785852 3.20628008 1.50357861 4.1654738 -1 5 C-1.66 5.66 -2.32 6.32 -3 7 C-3.33 5.68 -3.66 4.36 -4 3 C-2.68 2.34 -1.36 1.68 0 1 C0 0.67 0 0.34 0 0 Z " fill="#5BB89A" transform="translate(253,267)"/>
<path d="M0 0 C4.43458973 1.3937282 6.87378374 3.60582235 10 7 C6.07176899 7 4.93381106 5.48245551 2 3 C1.34 2.67 0.68 2.34 0 2 C0 1.34 0 0.68 0 0 Z " fill="#69B69E" transform="translate(264,259)"/>
<path d="M0 0 C1.32 0 2.64 0 4 0 C4 0.66 4 1.32 4 2 C5.32 2.33 6.64 2.66 8 3 C6.02 3.99 4.04 4.98 2 6 C2 4.68 2 3.36 2 2 C1.34 2 0.68 2 0 2 C0 1.34 0 0.68 0 0 Z " fill="#57B797" transform="translate(260,188)"/>
<path d="M0 0 C-1.28813342 0.83878455 -2.58063256 1.67086783 -3.875 2.5 C-4.59429687 2.9640625 -5.31359375 3.428125 -6.0546875 3.90625 C-8 5 -8 5 -10 5 C-9.67 3.35 -9.34 1.7 -9 0 C-5.5657338 -0.85856655 -3.38317487 -0.97591583 0 0 Z " fill="#6CBEA0" transform="translate(294,175)"/>
<path d="M0 0 C0.99 0 1.98 0 3 0 C3 0.66 3 1.32 3 2 C1.3203125 3.2890625 1.3203125 3.2890625 -0.875 4.625 C-1.95394531 5.29402344 -1.95394531 5.29402344 -3.0546875 5.9765625 C-5 7 -5 7 -7 7 C-7 6.01 -7 5.02 -7 4 C-5.35 4 -3.7 4 -2 4 C-2 3.34 -2 2.68 -2 2 C-1.34 2 -0.68 2 0 2 C0 1.34 0 0.68 0 0 Z " fill="#58B593" transform="translate(306,163)"/>
<path d="M0 0 C2.78633115 4.17949673 4 6.93375326 4 12 C3.34 12 2.68 12 2 12 C0.86235649 7.73383684 0 4.43513689 0 0 Z " fill="#66B598" transform="translate(274,267)"/>
<path d="M0 0 C0.66 0.33 1.32 0.66 2 1 C2 2.65 2 4.3 2 6 C1.01 6.33 0.02 6.66 -1 7 C-1 7.66 -1 8.32 -1 9 C-1.99 9.33 -2.98 9.66 -4 10 C-3.67 8.68 -3.34 7.36 -3 6 C-2.01 6 -1.02 6 0 6 C0 4.02 0 2.04 0 0 Z " fill="#6BB099" transform="translate(409,195)"/>
<path d="M0 0 C0.66 0.33 1.32 0.66 2 1 C-0.25557736 4.38336604 -1.36188532 4.60072512 -5 6 C-5.33 6.66 -5.66 7.32 -6 8 C-6.99 7.67 -7.98 7.34 -9 7 C-6.25604436 4.05278838 -3.61662784 1.80831392 0 0 Z " fill="#67B89F" transform="translate(383,95)"/>
<path d="M0 0 C0.99 0.33 1.98 0.66 3 1 C3 3.97 3 6.94 3 10 C2.34 10 1.68 10 1 10 C0.67 6.7 0.34 3.4 0 0 Z " fill="#50B092" transform="translate(176,272)"/>
<path d="M0 0 C3.0625 0.25 3.0625 0.25 6.0625 2.25 C5.7325 2.91 5.4025 3.57 5.0625 4.25 C1.7625 3.59 -1.5375 2.93 -4.9375 2.25 C-2.9375 0.25 -2.9375 0.25 0 0 Z " fill="#68B59E" transform="translate(318.9375,258.75)"/>
<path d="M0 0 C0.66 0 1.32 0 2 0 C2 0.99 2 1.98 2 3 C1.01 3.66 0.02 4.32 -1 5 C-1.72965366 7.56282742 -1.72965366 7.56282742 -2 10 C-2.66 9.34 -3.32 8.68 -4 8 C-3.66555164 4.65551641 -2.21127671 2.47662991 0 0 Z " fill="#5DB595" transform="translate(355,192)"/>
<path d="M0 0 C0.33 0.66 0.66 1.32 1 2 C-3.296875 6.00390625 -3.296875 6.00390625 -5 7 C-6.32 6.67 -7.64 6.34 -9 6 C-6.03 4.02 -3.06 2.04 0 0 Z " fill="#6CBD9F" transform="translate(202,208)"/>
<path d="M0 0 C0.33 1.32 0.66 2.64 1 4 C-0.65 4.33 -2.3 4.66 -4 5 C-4 5.66 -4 6.32 -4 7 C-4.66 7 -5.32 7 -6 7 C-4.60667426 3.63279613 -3.0210714 2.0140476 0 0 Z " fill="#73C1A5" transform="translate(175,225)"/>
<path d="M0 0 C0.66 0.33 1.32 0.66 2 1 C0.50260417 2.23697917 -0.99479167 3.47395833 -2.4921875 4.7109375 C-3.71051161 5.75250992 -4.86660097 6.86660097 -6 8 C-6.33 7.34 -6.66 6.68 -7 6 C-6.34 5.01 -5.68 4.02 -5 3 C-4.34 3 -3.68 3 -3 3 C-3 2.34 -3 1.68 -3 1 C-2.01 0.67 -1.02 0.34 0 0 Z " fill="#36AC85" transform="translate(206,207)"/>
<path d="M0 0 C4.455 1.98 4.455 1.98 9 4 C6 6 6 6 3 6 C2.67 4.68 2.34 3.36 2 2 C1.34 2 0.68 2 0 2 C0 1.34 0 0.68 0 0 Z " fill="#60BA9A" transform="translate(364,195)"/>
<path d="M0 0 C0.33 0.66 0.66 1.32 1 2 C1.66 2.33 2.32 2.66 3 3 C1.68 3.99 0.36 4.98 -1 6 C-1.66 5.67 -2.32 5.34 -3 5 C-3 4.01 -3 3.02 -3 2 C-2.01 1.34 -1.02 0.68 0 0 Z " fill="#51B794" transform="translate(237,205)"/>
<path d="M0 0 C0.33 0.99 0.66 1.98 1 3 C0.34 3.66 -0.32 4.32 -1 5 C-1.66 4.67 -2.32 4.34 -3 4 C-5.09821215 4.39938767 -5.09821215 4.39938767 -7 5 C-4.63707344 2.47411298 -3.33537489 1.11179163 0 0 Z " fill="#5EBC99" transform="translate(250,179)"/>
<path d="M0 0 C1.32 0.33 2.64 0.66 4 1 C-1.75 5 -1.75 5 -4 5 C-4.33 4.01 -4.66 3.02 -5 2 C-3.35 2 -1.7 2 0 2 C0 1.34 0 0.68 0 0 Z " fill="#57B292" transform="translate(321,154)"/>
<path d="M0 0 C1.32 0.33 2.64 0.66 4 1 C-0.75 5 -0.75 5 -3 5 C-3.33 4.01 -3.66 3.02 -4 2 C-2.68 2 -1.36 2 0 2 C0 1.34 0 0.68 0 0 Z " fill="#6ABEA3" transform="translate(424,89)"/>
<path d="M0 0 C0 0.99 0 1.98 0 3 C-3.375 3.125 -3.375 3.125 -7 3 C-7.66 2.34 -8.32 1.68 -9 1 C-2.25 0 -2.25 0 0 0 Z " fill="#72BDA5" transform="translate(315,295)"/>
<path d="M0 0 C0.33 0.66 0.66 1.32 1 2 C3.52733235 2.65555119 3.52733235 2.65555119 6 3 C6.33 4.32 6.66 5.64 7 7 C6.67 6.34 6.34 5.68 6 5 C3.47266765 4.34444881 3.47266765 4.34444881 1 4 C0.67 2.68 0.34 1.36 0 0 Z " fill="#57B591" transform="translate(184,279)"/>
<path d="M0 0 C0.33 0 0.66 0 1 0 C1.16834933 1.77067416 1.33461909 3.54154612 1.5 5.3125 C1.5928125 6.29863281 1.685625 7.28476562 1.78125 8.30078125 C2 11 2 11 2 14 C1.34 13.67 0.68 13.34 0 13 C0 8.71 0 4.42 0 0 Z " fill="#49B390" transform="translate(168,276)"/>
<path d="M0 0 C-2.68841859 2.25245881 -4.64641875 3.88213958 -8 5 C-8 4.01 -8 3.02 -8 2 C-4.77208445 -0.1519437 -3.71599191 -0.20086443 0 0 Z " fill="#64B69D" transform="translate(226,216)"/>
<path d="" fill="#FFFFFF" transform="translate(0,0)"/>
</svg>
